<mxfile host="app.diagrams.net" modified="2023-05-07T20:45:44.082Z" agent="Mozilla/5.0 (Windows NT 10.0; Win64; x64) AppleWebKit/537.36 (KHTML, like Gecko) Chrome/112.0.0.0 Safari/537.36" etag="uodMwMrQEh66Cj5hGwVJ" version="21.2.9" type="device">
  <diagram name="Page-1" id="OYHkxjZO-H9lMZDcjqEL">
    <mxGraphModel dx="880" dy="427" grid="1" gridSize="10" guides="1" tooltips="1" connect="1" arrows="1" fold="1" page="1" pageScale="1" pageWidth="850" pageHeight="1100" math="0" shadow="0">
      <root>
        <mxCell id="0" />
        <mxCell id="1" parent="0" />
        <mxCell id="7az64y84Tczn6pOBV5Ma-1" value="Run.py" style="swimlane;fontStyle=1;align=center;verticalAlign=top;childLayout=stackLayout;horizontal=1;startSize=26;horizontalStack=0;resizeParent=1;resizeParentMax=0;resizeLast=0;collapsible=1;marginBottom=0;whiteSpace=wrap;html=1;" parent="1" vertex="1">
          <mxGeometry y="80" width="160" height="60" as="geometry" />
        </mxCell>
        <mxCell id="7az64y84Tczn6pOBV5Ma-3" value="" style="line;strokeWidth=1;fillColor=none;align=left;verticalAlign=middle;spacingTop=-1;spacingLeft=3;spacingRight=3;rotatable=0;labelPosition=right;points=[];portConstraint=eastwest;strokeColor=inherit;" parent="7az64y84Tczn6pOBV5Ma-1" vertex="1">
          <mxGeometry y="26" width="160" height="8" as="geometry" />
        </mxCell>
        <mxCell id="7az64y84Tczn6pOBV5Ma-4" value="app.run()" style="text;strokeColor=none;fillColor=none;align=left;verticalAlign=top;spacingLeft=4;spacingRight=4;overflow=hidden;rotatable=0;points=[[0,0.5],[1,0.5]];portConstraint=eastwest;whiteSpace=wrap;html=1;" parent="7az64y84Tczn6pOBV5Ma-1" vertex="1">
          <mxGeometry y="34" width="160" height="26" as="geometry" />
        </mxCell>
        <mxCell id="7az64y84Tczn6pOBV5Ma-5" value="_init_.py" style="swimlane;fontStyle=0;childLayout=stackLayout;horizontal=1;startSize=26;fillColor=none;horizontalStack=0;resizeParent=1;resizeParentMax=0;resizeLast=0;collapsible=1;marginBottom=0;whiteSpace=wrap;html=1;" parent="1" vertex="1">
          <mxGeometry x="200" y="80" width="140" height="52" as="geometry" />
        </mxCell>
        <mxCell id="7az64y84Tczn6pOBV5Ma-11" value="" style="endArrow=block;dashed=1;endFill=0;endSize=12;html=1;rounded=0;entryX=0.007;entryY=0;entryDx=0;entryDy=0;entryPerimeter=0;" parent="7az64y84Tczn6pOBV5Ma-5" target="7az64y84Tczn6pOBV5Ma-7" edge="1">
          <mxGeometry width="160" relative="1" as="geometry">
            <mxPoint x="-100" y="26" as="sourcePoint" />
            <mxPoint x="60" y="26" as="targetPoint" />
          </mxGeometry>
        </mxCell>
        <mxCell id="7az64y84Tczn6pOBV5Ma-7" value="Flask()&amp;nbsp;" style="text;strokeColor=none;fillColor=none;align=left;verticalAlign=top;spacingLeft=4;spacingRight=4;overflow=hidden;rotatable=0;points=[[0,0.5],[1,0.5]];portConstraint=eastwest;whiteSpace=wrap;html=1;" parent="7az64y84Tczn6pOBV5Ma-5" vertex="1">
          <mxGeometry y="26" width="140" height="26" as="geometry" />
        </mxCell>
        <mxCell id="7az64y84Tczn6pOBV5Ma-10" value="" style="endArrow=block;dashed=1;endFill=0;endSize=12;html=1;rounded=0;exitX=1.021;exitY=0.077;exitDx=0;exitDy=0;exitPerimeter=0;entryX=-0.006;entryY=0.838;entryDx=0;entryDy=0;entryPerimeter=0;" parent="1" source="7az64y84Tczn6pOBV5Ma-7" target="7az64y84Tczn6pOBV5Ma-14" edge="1">
          <mxGeometry width="160" relative="1" as="geometry">
            <mxPoint x="460" y="113.5" as="sourcePoint" />
            <mxPoint x="560" y="116" as="targetPoint" />
          </mxGeometry>
        </mxCell>
        <mxCell id="7az64y84Tczn6pOBV5Ma-16" style="edgeStyle=orthogonalEdgeStyle;rounded=0;orthogonalLoop=1;jettySize=auto;html=1;strokeColor=#FF0000;entryX=0.5;entryY=0;entryDx=0;entryDy=0;" parent="1" source="7az64y84Tczn6pOBV5Ma-12" target="7az64y84Tczn6pOBV5Ma-19" edge="1">
          <mxGeometry relative="1" as="geometry">
            <mxPoint x="490" y="310" as="targetPoint" />
          </mxGeometry>
        </mxCell>
        <mxCell id="7az64y84Tczn6pOBV5Ma-17" style="edgeStyle=orthogonalEdgeStyle;rounded=0;orthogonalLoop=1;jettySize=auto;html=1;entryX=0.571;entryY=0.013;entryDx=0;entryDy=0;entryPerimeter=0;" parent="1" source="7az64y84Tczn6pOBV5Ma-12" target="7az64y84Tczn6pOBV5Ma-23" edge="1">
          <mxGeometry relative="1" as="geometry">
            <mxPoint x="650" y="400" as="targetPoint" />
          </mxGeometry>
        </mxCell>
        <mxCell id="7az64y84Tczn6pOBV5Ma-18" style="edgeStyle=orthogonalEdgeStyle;rounded=0;orthogonalLoop=1;jettySize=auto;html=1;strokeColor=#000099;entryX=0.5;entryY=0;entryDx=0;entryDy=0;" parent="1" source="7az64y84Tczn6pOBV5Ma-12" target="7az64y84Tczn6pOBV5Ma-33" edge="1">
          <mxGeometry relative="1" as="geometry">
            <mxPoint x="800" y="460" as="targetPoint" />
          </mxGeometry>
        </mxCell>
        <mxCell id="Ezp9k2vlpMlqN5pCA2sd-1" style="edgeStyle=orthogonalEdgeStyle;rounded=0;orthogonalLoop=1;jettySize=auto;html=1;strokeColor=#FF8000;" parent="1" source="7az64y84Tczn6pOBV5Ma-12" edge="1">
          <mxGeometry relative="1" as="geometry">
            <mxPoint x="480" y="430" as="targetPoint" />
          </mxGeometry>
        </mxCell>
        <mxCell id="7az64y84Tczn6pOBV5Ma-12" value="Views.py" style="swimlane;fontStyle=0;childLayout=stackLayout;horizontal=1;startSize=26;fillColor=none;horizontalStack=0;resizeParent=1;resizeParentMax=0;resizeLast=0;collapsible=1;marginBottom=0;whiteSpace=wrap;html=1;" parent="1" vertex="1">
          <mxGeometry x="390" y="10" width="210" height="230" as="geometry" />
        </mxCell>
        <mxCell id="7az64y84Tczn6pOBV5Ma-13" value="&lt;font color=&quot;#ff0000&quot;&gt;index():void&lt;/font&gt;" style="text;strokeColor=none;fillColor=none;align=left;verticalAlign=top;spacingLeft=4;spacingRight=4;overflow=hidden;rotatable=0;points=[[0,0.5],[1,0.5]];portConstraint=eastwest;whiteSpace=wrap;html=1;" parent="7az64y84Tczn6pOBV5Ma-12" vertex="1">
          <mxGeometry y="26" width="210" height="26" as="geometry" />
        </mxCell>
        <mxCell id="7az64y84Tczn6pOBV5Ma-14" value="&lt;font color=&quot;#000099&quot;&gt;project():void&amp;nbsp;&lt;br&gt;&lt;span style=&quot;white-space: pre;&quot;&gt; &lt;/span&gt;df.quary()&lt;br&gt;&lt;span style=&quot;white-space: pre;&quot;&gt; &lt;/span&gt;fig = plotly()&lt;br&gt;&lt;span style=&quot;white-space: pre;&quot;&gt; &lt;/span&gt;json.dumps(fig, encoder)&lt;br&gt;&lt;/font&gt;" style="text;strokeColor=none;fillColor=none;align=left;verticalAlign=top;spacingLeft=4;spacingRight=4;overflow=hidden;rotatable=0;points=[[0,0.5],[1,0.5]];portConstraint=eastwest;whiteSpace=wrap;html=1;" parent="7az64y84Tczn6pOBV5Ma-12" vertex="1">
          <mxGeometry y="52" width="210" height="68" as="geometry" />
        </mxCell>
        <mxCell id="7az64y84Tczn6pOBV5Ma-15" value="includedCountries():void&lt;br&gt;&lt;span style=&quot;&quot;&gt; &lt;/span&gt;&lt;span style=&quot;&quot;&gt; &lt;/span&gt;to_html()&lt;br&gt;&lt;br&gt;&lt;font color=&quot;#ff8000&quot;&gt;request_change():void&lt;br&gt;&lt;/font&gt;&lt;span style=&quot;&quot;&gt; &lt;/span&gt;&lt;font color=&quot;#ff8000&quot;&gt;to_csv()&lt;/font&gt;&lt;br&gt;&lt;br&gt;&lt;font color=&quot;#99004d&quot;&gt;country_info(): void&lt;/font&gt;&lt;br&gt;" style="text;strokeColor=none;fillColor=none;align=left;verticalAlign=top;spacingLeft=4;spacingRight=4;overflow=hidden;rotatable=0;points=[[0,0.5],[1,0.5]];portConstraint=eastwest;whiteSpace=wrap;html=1;" parent="7az64y84Tczn6pOBV5Ma-12" vertex="1">
          <mxGeometry y="120" width="210" height="110" as="geometry" />
        </mxCell>
        <mxCell id="7az64y84Tczn6pOBV5Ma-19" value="Index.html" style="swimlane;fontStyle=0;childLayout=stackLayout;horizontal=1;startSize=26;fillColor=none;horizontalStack=0;resizeParent=1;resizeParentMax=0;resizeLast=0;collapsible=1;marginBottom=0;whiteSpace=wrap;html=1;" parent="1" vertex="1">
          <mxGeometry x="250" y="310" width="140" height="78" as="geometry" />
        </mxCell>
        <mxCell id="7az64y84Tczn6pOBV5Ma-20" value="Title" style="text;strokeColor=none;fillColor=none;align=left;verticalAlign=top;spacingLeft=4;spacingRight=4;overflow=hidden;rotatable=0;points=[[0,0.5],[1,0.5]];portConstraint=eastwest;whiteSpace=wrap;html=1;" parent="7az64y84Tczn6pOBV5Ma-19" vertex="1">
          <mxGeometry y="26" width="140" height="26" as="geometry" />
        </mxCell>
        <mxCell id="7az64y84Tczn6pOBV5Ma-21" value="Main" style="text;strokeColor=none;fillColor=none;align=left;verticalAlign=top;spacingLeft=4;spacingRight=4;overflow=hidden;rotatable=0;points=[[0,0.5],[1,0.5]];portConstraint=eastwest;whiteSpace=wrap;html=1;" parent="7az64y84Tczn6pOBV5Ma-19" vertex="1">
          <mxGeometry y="52" width="140" height="26" as="geometry" />
        </mxCell>
        <mxCell id="7az64y84Tczn6pOBV5Ma-23" value="info.html" style="swimlane;fontStyle=0;childLayout=stackLayout;horizontal=1;startSize=26;fillColor=none;horizontalStack=0;resizeParent=1;resizeParentMax=0;resizeLast=0;collapsible=1;marginBottom=0;whiteSpace=wrap;html=1;" parent="1" vertex="1">
          <mxGeometry x="570" y="258" width="140" height="90" as="geometry" />
        </mxCell>
        <mxCell id="7az64y84Tczn6pOBV5Ma-24" value="Title" style="text;strokeColor=none;fillColor=none;align=left;verticalAlign=top;spacingLeft=4;spacingRight=4;overflow=hidden;rotatable=0;points=[[0,0.5],[1,0.5]];portConstraint=eastwest;whiteSpace=wrap;html=1;" parent="7az64y84Tczn6pOBV5Ma-23" vertex="1">
          <mxGeometry y="26" width="140" height="26" as="geometry" />
        </mxCell>
        <mxCell id="7az64y84Tczn6pOBV5Ma-25" value="Main&lt;br&gt;&lt;span style=&quot;white-space: pre;&quot;&gt; &lt;/span&gt;Table" style="text;strokeColor=none;fillColor=none;align=left;verticalAlign=top;spacingLeft=4;spacingRight=4;overflow=hidden;rotatable=0;points=[[0,0.5],[1,0.5]];portConstraint=eastwest;whiteSpace=wrap;html=1;" parent="7az64y84Tczn6pOBV5Ma-23" vertex="1">
          <mxGeometry y="52" width="140" height="38" as="geometry" />
        </mxCell>
        <mxCell id="7az64y84Tczn6pOBV5Ma-33" value="Project.html" style="swimlane;fontStyle=0;childLayout=stackLayout;horizontal=1;startSize=26;fillColor=none;horizontalStack=0;resizeParent=1;resizeParentMax=0;resizeLast=0;collapsible=1;marginBottom=0;whiteSpace=wrap;html=1;" parent="1" vertex="1">
          <mxGeometry x="670" y="380" width="140" height="110" as="geometry" />
        </mxCell>
        <mxCell id="7az64y84Tczn6pOBV5Ma-34" value="Title" style="text;strokeColor=none;fillColor=none;align=left;verticalAlign=top;spacingLeft=4;spacingRight=4;overflow=hidden;rotatable=0;points=[[0,0.5],[1,0.5]];portConstraint=eastwest;whiteSpace=wrap;html=1;" parent="7az64y84Tczn6pOBV5Ma-33" vertex="1">
          <mxGeometry y="26" width="140" height="26" as="geometry" />
        </mxCell>
        <mxCell id="7az64y84Tczn6pOBV5Ma-35" value="Main&lt;br&gt;&lt;span style=&quot;white-space: pre;&quot;&gt; &lt;/span&gt;Select&amp;nbsp;&lt;br&gt;&lt;span style=&quot;white-space: pre;&quot;&gt; &lt;/span&gt;Input" style="text;strokeColor=none;fillColor=none;align=left;verticalAlign=top;spacingLeft=4;spacingRight=4;overflow=hidden;rotatable=0;points=[[0,0.5],[1,0.5]];portConstraint=eastwest;whiteSpace=wrap;html=1;" parent="7az64y84Tczn6pOBV5Ma-33" vertex="1">
          <mxGeometry y="52" width="140" height="58" as="geometry" />
        </mxCell>
        <mxCell id="Ezp9k2vlpMlqN5pCA2sd-2" value="change_request.html" style="swimlane;fontStyle=0;childLayout=stackLayout;horizontal=1;startSize=26;fillColor=none;horizontalStack=0;resizeParent=1;resizeParentMax=0;resizeLast=0;collapsible=1;marginBottom=0;whiteSpace=wrap;html=1;" parent="1" vertex="1">
          <mxGeometry x="430" y="430" width="140" height="110" as="geometry" />
        </mxCell>
        <mxCell id="Ezp9k2vlpMlqN5pCA2sd-3" value="Title" style="text;strokeColor=none;fillColor=none;align=left;verticalAlign=top;spacingLeft=4;spacingRight=4;overflow=hidden;rotatable=0;points=[[0,0.5],[1,0.5]];portConstraint=eastwest;whiteSpace=wrap;html=1;" parent="Ezp9k2vlpMlqN5pCA2sd-2" vertex="1">
          <mxGeometry y="26" width="140" height="26" as="geometry" />
        </mxCell>
        <mxCell id="Ezp9k2vlpMlqN5pCA2sd-4" value="Main&lt;br&gt;&lt;span style=&quot;white-space: pre;&quot;&gt; &lt;/span&gt;Select&amp;nbsp;&lt;br&gt;&lt;span style=&quot;white-space: pre;&quot;&gt; &lt;/span&gt;Input" style="text;strokeColor=none;fillColor=none;align=left;verticalAlign=top;spacingLeft=4;spacingRight=4;overflow=hidden;rotatable=0;points=[[0,0.5],[1,0.5]];portConstraint=eastwest;whiteSpace=wrap;html=1;" parent="Ezp9k2vlpMlqN5pCA2sd-2" vertex="1">
          <mxGeometry y="52" width="140" height="58" as="geometry" />
        </mxCell>
        <mxCell id="Iw25cXxFmGqFFhfcf31M-2" value="country_info.html" style="swimlane;fontStyle=0;childLayout=stackLayout;horizontal=1;startSize=26;fillColor=none;horizontalStack=0;resizeParent=1;resizeParentMax=0;resizeLast=0;collapsible=1;marginBottom=0;whiteSpace=wrap;html=1;" vertex="1" parent="1">
          <mxGeometry x="80" y="180" width="140" height="90" as="geometry" />
        </mxCell>
        <mxCell id="Iw25cXxFmGqFFhfcf31M-3" value="Title" style="text;strokeColor=none;fillColor=none;align=left;verticalAlign=top;spacingLeft=4;spacingRight=4;overflow=hidden;rotatable=0;points=[[0,0.5],[1,0.5]];portConstraint=eastwest;whiteSpace=wrap;html=1;" vertex="1" parent="Iw25cXxFmGqFFhfcf31M-2">
          <mxGeometry y="26" width="140" height="26" as="geometry" />
        </mxCell>
        <mxCell id="Iw25cXxFmGqFFhfcf31M-4" value="Main&lt;br&gt;&lt;span style=&quot;white-space: pre;&quot;&gt; &lt;/span&gt;Select&amp;nbsp;&lt;br&gt;&lt;span style=&quot;white-space: pre;&quot;&gt; &lt;/span&gt;" style="text;strokeColor=none;fillColor=none;align=left;verticalAlign=top;spacingLeft=4;spacingRight=4;overflow=hidden;rotatable=0;points=[[0,0.5],[1,0.5]];portConstraint=eastwest;whiteSpace=wrap;html=1;" vertex="1" parent="Iw25cXxFmGqFFhfcf31M-2">
          <mxGeometry y="52" width="140" height="38" as="geometry" />
        </mxCell>
        <mxCell id="Iw25cXxFmGqFFhfcf31M-1" style="edgeStyle=orthogonalEdgeStyle;rounded=0;orthogonalLoop=1;jettySize=auto;html=1;strokeColor=#99004D;entryX=1;entryY=0.5;entryDx=0;entryDy=0;" edge="1" parent="1" source="7az64y84Tczn6pOBV5Ma-15" target="Iw25cXxFmGqFFhfcf31M-3">
          <mxGeometry relative="1" as="geometry">
            <mxPoint x="220" y="210" as="targetPoint" />
          </mxGeometry>
        </mxCell>
        <mxCell id="Iw25cXxFmGqFFhfcf31M-6" value="template.html" style="swimlane;fontStyle=0;childLayout=stackLayout;horizontal=1;startSize=26;fillColor=none;horizontalStack=0;resizeParent=1;resizeParentMax=0;resizeLast=0;collapsible=1;marginBottom=0;whiteSpace=wrap;html=1;" vertex="1" parent="1">
          <mxGeometry x="20" y="320" width="140" height="130" as="geometry" />
        </mxCell>
        <mxCell id="Iw25cXxFmGqFFhfcf31M-7" value="{%Title %}" style="text;strokeColor=none;fillColor=none;align=left;verticalAlign=top;spacingLeft=4;spacingRight=4;overflow=hidden;rotatable=0;points=[[0,0.5],[1,0.5]];portConstraint=eastwest;whiteSpace=wrap;html=1;" vertex="1" parent="Iw25cXxFmGqFFhfcf31M-6">
          <mxGeometry y="26" width="140" height="26" as="geometry" />
        </mxCell>
        <mxCell id="Iw25cXxFmGqFFhfcf31M-9" value="Navnar" style="text;strokeColor=none;fillColor=none;align=left;verticalAlign=top;spacingLeft=4;spacingRight=4;overflow=hidden;rotatable=0;points=[[0,0.5],[1,0.5]];portConstraint=eastwest;whiteSpace=wrap;html=1;" vertex="1" parent="Iw25cXxFmGqFFhfcf31M-6">
          <mxGeometry y="52" width="140" height="26" as="geometry" />
        </mxCell>
        <mxCell id="Iw25cXxFmGqFFhfcf31M-8" value="Flash messages&lt;br&gt;&lt;br&gt;{% main %}" style="text;strokeColor=none;fillColor=none;align=left;verticalAlign=top;spacingLeft=4;spacingRight=4;overflow=hidden;rotatable=0;points=[[0,0.5],[1,0.5]];portConstraint=eastwest;whiteSpace=wrap;html=1;" vertex="1" parent="Iw25cXxFmGqFFhfcf31M-6">
          <mxGeometry y="78" width="140" height="52" as="geometry" />
        </mxCell>
        <mxCell id="Iw25cXxFmGqFFhfcf31M-10" value="Inhatance" style="html=1;verticalAlign=bottom;endArrow=block;edgeStyle=elbowEdgeStyle;elbow=vertical;curved=0;rounded=0;entryX=0.393;entryY=1;entryDx=0;entryDy=0;entryPerimeter=0;exitX=1;exitY=0.5;exitDx=0;exitDy=0;" edge="1" parent="1" source="Iw25cXxFmGqFFhfcf31M-8" target="7az64y84Tczn6pOBV5Ma-21">
          <mxGeometry width="80" relative="1" as="geometry">
            <mxPoint x="200" y="450" as="sourcePoint" />
            <mxPoint x="280" y="450" as="targetPoint" />
          </mxGeometry>
        </mxCell>
        <mxCell id="Iw25cXxFmGqFFhfcf31M-11" value="Inhatance" style="html=1;verticalAlign=bottom;endArrow=block;edgeStyle=elbowEdgeStyle;elbow=vertical;curved=0;rounded=0;exitX=0.75;exitY=0;exitDx=0;exitDy=0;" edge="1" parent="1" source="Iw25cXxFmGqFFhfcf31M-6" target="Iw25cXxFmGqFFhfcf31M-4">
          <mxGeometry width="80" relative="1" as="geometry">
            <mxPoint x="170" y="434" as="sourcePoint" />
            <mxPoint x="315" y="398" as="targetPoint" />
          </mxGeometry>
        </mxCell>
        <mxCell id="Iw25cXxFmGqFFhfcf31M-12" value="Inhatance" style="html=1;verticalAlign=bottom;endArrow=block;edgeStyle=elbowEdgeStyle;elbow=vertical;curved=0;rounded=0;exitX=1;exitY=0.5;exitDx=0;exitDy=0;" edge="1" parent="1" source="Iw25cXxFmGqFFhfcf31M-8">
          <mxGeometry width="80" relative="1" as="geometry">
            <mxPoint x="180" y="444" as="sourcePoint" />
            <mxPoint x="430" y="500" as="targetPoint" />
            <Array as="points">
              <mxPoint x="270" y="500" />
            </Array>
          </mxGeometry>
        </mxCell>
        <mxCell id="Iw25cXxFmGqFFhfcf31M-13" value="Inhatance" style="html=1;verticalAlign=bottom;endArrow=block;edgeStyle=elbowEdgeStyle;elbow=vertical;curved=0;rounded=0;exitX=0.636;exitY=1.019;exitDx=0;exitDy=0;exitPerimeter=0;entryX=0.3;entryY=0.947;entryDx=0;entryDy=0;entryPerimeter=0;" edge="1" parent="1" source="Iw25cXxFmGqFFhfcf31M-8" target="7az64y84Tczn6pOBV5Ma-25">
          <mxGeometry width="80" relative="1" as="geometry">
            <mxPoint x="170" y="434" as="sourcePoint" />
            <mxPoint x="440" y="510" as="targetPoint" />
            <Array as="points">
              <mxPoint x="380" y="560" />
            </Array>
          </mxGeometry>
        </mxCell>
        <mxCell id="Iw25cXxFmGqFFhfcf31M-14" value="Inhatance" style="html=1;verticalAlign=bottom;endArrow=block;edgeStyle=elbowEdgeStyle;elbow=vertical;curved=0;rounded=0;exitX=0.5;exitY=1.038;exitDx=0;exitDy=0;exitPerimeter=0;" edge="1" parent="1" source="Iw25cXxFmGqFFhfcf31M-8">
          <mxGeometry width="80" relative="1" as="geometry">
            <mxPoint x="119" y="461" as="sourcePoint" />
            <mxPoint x="750" y="490" as="targetPoint" />
            <Array as="points">
              <mxPoint x="390" y="570" />
            </Array>
          </mxGeometry>
        </mxCell>
      </root>
    </mxGraphModel>
  </diagram>
</mxfile>
